<svg width="14" height="14" viewBox="0 0 14 14" fill="none" xmlns="http://www.w3.org/2000/svg">
<g id="fi_149284" clip-path="url(#clip0_191_271)">
<path id="Vector" d="M13.5989 5.20904C13.4928 5.10299 13.3214 5.10299 13.2154 5.20904L5.81276 12.6117C5.26707 13.1574 4.53885 13.4576 3.76154 13.4576C2.98396 13.4576 2.25547 13.1574 1.71005 12.6117C1.16463 12.066 0.864118 11.3378 0.864118 10.5602C0.864118 9.78286 1.16436 9.05437 1.71005 8.50895L9.1124 1.10605C9.89812 0.320606 11.1316 0.368612 11.9816 1.21807C12.8313 2.06779 12.8796 3.30156 12.0939 4.08728L5.13987 11.0416C4.75121 11.4302 4.11819 11.4305 3.72872 11.0416C3.3398 10.6524 3.3398 10.0194 3.72872 9.63043L8.43951 4.91965C8.54555 4.8136 8.54555 4.64219 8.43951 4.53615C8.33346 4.4301 8.16205 4.4301 8.05601 4.53615L3.34522 9.24666C2.74474 9.84714 2.74474 10.8241 3.34522 11.4248C3.94624 12.0258 4.92344 12.0247 5.52337 11.4248L12.4777 4.47051C13.482 3.46592 13.4337 1.90262 12.3654 0.834293C11.2973 -0.233763 9.73376 -0.282311 8.72917 0.72228L1.32627 8.12517C0.678063 8.77311 0.321411 9.63776 0.321411 10.5602C0.321411 11.4826 0.678063 12.3475 1.32627 12.9954C1.97421 13.6436 2.83886 14.0003 3.76154 14.0003C4.68368 14.0003 5.5486 13.6436 6.19654 12.9954L13.5989 5.59254C13.7049 5.4865 13.7049 5.31481 13.5989 5.20904Z" fill="black"/>
</g>
<defs>
<clipPath id="clip0_191_271">
<rect width="14" height="14" fill="white"/>
</clipPath>
</defs>
</svg>
