<svg width="17" height="17" viewBox="0 0 17 17" fill="none" xmlns="http://www.w3.org/2000/svg">
<g id="fi_1077063" clip-path="url(#clip0_58_2329)">
<path id="Vector" d="M8.38834 8.16412C9.42428 8.16412 10.3212 7.79257 11.0543 7.05951C11.7871 6.32657 12.1588 5.42977 12.1588 4.39371C12.1588 3.35801 11.7872 2.46109 11.0541 1.72791C10.3211 0.995083 9.42416 0.623535 8.38834 0.623535C7.35228 0.623535 6.45548 0.995083 5.72253 1.72803C4.98959 2.46097 4.61792 3.35789 4.61792 4.39371C4.61792 5.42977 4.98959 6.32669 5.72253 7.05963C6.45572 7.79246 7.35264 8.16412 8.38834 8.16412ZM6.37128 2.37665C6.93368 1.81425 7.59341 1.54088 8.38834 1.54088C9.18315 1.54088 9.843 1.81425 10.4055 2.37665C10.9679 2.93917 11.2414 3.59902 11.2414 4.39371C11.2414 5.18864 10.9679 5.84837 10.4055 6.41089C9.843 6.9734 9.18315 7.24678 8.38834 7.24678C7.59365 7.24678 6.93392 6.97328 6.37128 6.41089C5.80876 5.84849 5.53527 5.18864 5.53527 4.39371C5.53527 3.59902 5.80876 2.93917 6.37128 2.37665Z" fill="white"/>
<path id="Vector_2" d="M14.9856 12.6607C14.9644 12.3557 14.9217 12.0229 14.8587 11.6716C14.7952 11.3176 14.7134 10.983 14.6155 10.6771C14.5142 10.361 14.3767 10.0488 14.2065 9.7496C14.0301 9.43908 13.8228 9.16869 13.5902 8.94619C13.3469 8.71342 13.049 8.52627 12.7046 8.38976C12.3613 8.25397 11.981 8.18518 11.5741 8.18518C11.4143 8.18518 11.2597 8.25075 10.9613 8.44506C10.7776 8.56485 10.5627 8.70339 10.3229 8.85661C10.1178 8.98727 9.84004 9.10969 9.49692 9.22052C9.16215 9.32884 8.82225 9.38378 8.48665 9.38378C8.15129 9.38378 7.81139 9.32884 7.47639 9.22052C7.13363 9.10981 6.85571 8.98739 6.65101 8.85673C6.41346 8.70494 6.19849 8.5664 6.01205 8.44494C5.71384 8.25063 5.55929 8.18506 5.3995 8.18506C4.99248 8.18506 4.61221 8.25397 4.26909 8.38988C3.92489 8.52615 3.62691 8.7133 3.38339 8.94631C3.15074 9.16893 2.94341 9.4392 2.76713 9.7496C2.59718 10.0488 2.45959 10.3608 2.35832 10.6772C2.2605 10.9831 2.17869 11.3176 2.11516 11.6716C2.0521 12.0225 2.00946 12.3553 1.98832 12.6611C1.96754 12.96 1.95703 13.2711 1.95703 13.5855C1.95703 14.4026 2.21679 15.0641 2.72903 15.552C3.23494 16.0334 3.90423 16.2775 4.71838 16.2775H12.2559C13.0698 16.2775 13.7391 16.0334 14.2451 15.552C14.7575 15.0645 15.0172 14.4027 15.0172 13.5853C15.0171 13.2699 15.0065 12.9588 14.9856 12.6607ZM13.6126 14.8874C13.2783 15.2055 12.8345 15.3602 12.2558 15.3602H4.71838C4.1395 15.3602 3.6957 15.2055 3.36153 14.8875C3.0337 14.5754 2.87438 14.1494 2.87438 13.5855C2.87438 13.2921 2.88405 13.0025 2.9034 12.7245C2.92227 12.4517 2.96084 12.1521 3.01805 11.8337C3.07454 11.5192 3.14644 11.2241 3.23195 10.9569C3.314 10.7007 3.42591 10.4471 3.56468 10.2027C3.69713 9.96982 3.84953 9.77002 4.01768 9.60903C4.17497 9.45842 4.37323 9.33517 4.60684 9.24273C4.82289 9.15722 5.06569 9.1104 5.32927 9.10336C5.3614 9.12044 5.4186 9.15304 5.51128 9.21347C5.69986 9.33637 5.91723 9.47658 6.15752 9.63005C6.42839 9.80274 6.77737 9.95872 7.1943 10.0933C7.62054 10.2311 8.05527 10.3011 8.48677 10.3011C8.91828 10.3011 9.35312 10.2311 9.77913 10.0934C10.1964 9.9586 10.5453 9.80274 10.8165 9.62981C11.0624 9.47264 11.2737 9.33649 11.4623 9.21347C11.5549 9.15316 11.6122 9.12044 11.6443 9.10336C11.908 9.1104 12.1508 9.15722 12.367 9.24273C12.6004 9.33517 12.7987 9.45854 12.956 9.60903C13.1241 9.7699 13.2765 9.9697 13.409 10.2028C13.5479 10.4471 13.6599 10.7009 13.7418 10.9568C13.8275 11.2243 13.8995 11.5193 13.9559 11.8335C14.0129 12.1525 14.0516 12.4523 14.0705 12.7246V12.7248C14.09 13.0018 14.0998 13.2913 14.0999 13.5855C14.0998 14.1495 13.9404 14.5754 13.6126 14.8874Z" fill="white"/>
</g>
<defs>
<clipPath id="clip0_58_2329">
<rect width="15.654" height="15.654" fill="white" transform="translate(0.672852 0.623535)"/>
</clipPath>
</defs>
</svg>
