<svg width="14" height="14" viewBox="0 0 14 14" fill="none" xmlns="http://www.w3.org/2000/svg">
<g id="fi_190411" clip-path="url(#clip0_58_626)">
<path id="Vector" d="M7 14C10.866 14 14 10.866 14 7C14 3.13401 10.866 0 7 0C3.13401 0 0 3.13401 0 7C0 10.866 3.13401 14 7 14Z" fill="#32BA7C"/>
<path id="Vector_2" d="M5.2113 10.1579L8.81067 13.7573C11.7917 12.9624 13.9999 10.2463 13.9999 7.00022C13.9999 6.93397 13.9999 6.86772 13.9999 6.80148L11.1734 4.1958L5.2113 10.1579Z" fill="#0AA06E"/>
<g id="Group">
<path id="Vector_3" d="M7.17661 8.56813C7.48575 8.87727 7.48575 9.40724 7.17661 9.71639L6.53623 10.3568C6.22708 10.6659 5.69711 10.6659 5.38796 10.3568L2.58355 7.53027C2.2744 7.22112 2.2744 6.69115 2.58355 6.38201L3.22392 5.74163C3.53307 5.43248 4.06304 5.43248 4.37219 5.74163L7.17661 8.56813Z" fill="white"/>
<path id="Vector_4" d="M9.62775 3.68792C9.93689 3.37877 10.4669 3.37877 10.776 3.68792L11.4164 4.32829C11.7255 4.63744 11.7255 5.16741 11.4164 5.47656L6.55835 10.3125C6.2492 10.6217 5.71923 10.6217 5.41008 10.3125L4.7697 9.67214C4.46055 9.36299 4.46055 8.83303 4.7697 8.52388L9.62775 3.68792Z" fill="white"/>
</g>
</g>
<defs>
<clipPath id="clip0_58_626">
<rect width="14" height="14" fill="white"/>
</clipPath>
</defs>
</svg>
