<svg width="15" height="15" viewBox="0 0 15 15" fill="none" xmlns="http://www.w3.org/2000/svg">
<g id="fi_1250615" clip-path="url(#clip0_58_2157)">
<path id="Vector" d="M12.9126 1.02989C12.1566 0.275193 10.9323 0.275193 10.1763 1.02989L9.49131 1.71861L2.1999 9.00614L2.18441 9.02176C2.18065 9.02551 2.18065 9.02951 2.17666 9.02951C2.16891 9.04113 2.15729 9.05263 2.14966 9.06425C2.14966 9.06813 2.14567 9.06813 2.14567 9.072C2.13792 9.08362 2.13417 9.09137 2.1263 9.10299C2.12254 9.10687 2.12254 9.11062 2.11867 9.11461C2.1148 9.12624 2.11092 9.13398 2.10693 9.1456C2.10693 9.14936 2.10317 9.14936 2.10317 9.15335L0.485431 14.0181C0.437975 14.1566 0.474051 14.31 0.578285 14.4127C0.651527 14.485 0.750314 14.5255 0.853095 14.5251C0.895103 14.5244 0.936748 14.5178 0.97694 14.5057L5.83792 12.8841C5.84167 12.8841 5.84167 12.8841 5.84567 12.8803C5.85789 12.8767 5.86964 12.8715 5.88041 12.8647C5.88344 12.8644 5.8861 12.863 5.88828 12.861C5.89978 12.8532 5.91528 12.8454 5.9269 12.8376C5.9384 12.83 5.95014 12.8184 5.96177 12.8106C5.96564 12.8066 5.96939 12.8066 5.96939 12.8029C5.97339 12.799 5.98113 12.7952 5.98501 12.7874L13.9614 4.811C14.7161 4.05497 14.7161 2.83068 13.9614 2.07477L12.9126 1.02989ZM5.71407 11.9746L3.02046 9.28107L9.76225 2.53928L12.4559 5.23278L5.71407 11.9746ZM2.64105 9.99703L4.99424 12.3501L1.4607 13.5266L2.64105 9.99703ZM13.4158 4.26913L13.0055 4.68328L10.3117 1.98954L10.726 1.57551C11.1791 1.12274 11.9136 1.12274 12.3669 1.57551L13.4195 2.62814C13.8693 3.08333 13.8676 3.81612 13.4158 4.26913Z" fill="#666262"/>
</g>
<defs>
<clipPath id="clip0_58_2157">
<rect width="15" height="15" fill="white"/>
</clipPath>
</defs>
</svg>
