<svg width="13" height="13" viewBox="0 0 13 13" fill="none" xmlns="http://www.w3.org/2000/svg">
<g id="fi_4441204" clip-path="url(#clip0_58_214)">
<g id="Group">
<path id="Vector" d="M9.08385 3.47559C8.38853 3.47559 7.72174 3.65441 7.13039 3.99635C7.36655 4.22001 7.5793 4.46808 7.76491 4.73631C8.17263 4.53333 8.62189 4.42692 9.08382 4.42692C10.7186 4.42692 12.0486 5.75691 12.0486 7.39168C12.0486 9.02646 10.7186 10.3564 9.08385 10.3564C7.4491 10.3564 6.11909 9.02646 6.11909 7.39171C6.11909 6.79043 5.87686 6.24474 5.48498 5.84684C5.27683 6.33226 5.16772 6.85848 5.16772 7.39171C5.16772 9.55105 6.92448 11.3078 9.08382 11.3078C11.2432 11.3078 12.9999 9.55103 12.9999 7.39171C12.9999 5.23239 11.2432 3.47559 9.08385 3.47559Z" fill="#666262"/>
<path id="Vector_2" d="M5.23504 10.0469C4.82732 10.2498 4.37808 10.3563 3.91612 10.3563C2.28135 10.3563 0.951361 9.02627 0.951361 7.39149C0.951361 5.75672 2.28135 4.42673 3.9161 4.42673C5.55085 4.42673 6.88086 5.75672 6.88086 7.39149C6.88086 7.99277 7.12309 8.53846 7.51497 8.93636C7.72312 8.45094 7.83222 7.92472 7.83222 7.39149C7.83222 5.40429 6.34436 3.75814 4.42416 3.5083L5.14472 2.52995L4.86571 1.69287H2.96654L2.68752 2.52995L3.40808 3.5083C1.48787 3.75814 0 5.40429 0 7.39149C0 9.55084 1.75675 11.3076 3.9161 11.3076C4.61142 11.3076 5.2782 11.1288 5.86955 10.7868C5.63342 10.5631 5.42067 10.3151 5.23504 10.0469Z" fill="#666262"/>
</g>
</g>
<defs>
<clipPath id="clip0_58_214">
<rect width="13" height="13" fill="white"/>
</clipPath>
</defs>
</svg>
