<svg width="16" height="16" viewBox="0 0 16 16" fill="none" xmlns="http://www.w3.org/2000/svg">
<g id="fi_1077063" clip-path="url(#clip0_86_990)">
<path id="Vector" d="M7.55862 7.38738C8.57351 7.38738 9.45221 7.02338 10.1704 6.30521C10.8883 5.58716 11.2524 4.70858 11.2524 3.69357C11.2524 2.67892 10.8884 1.80022 10.1703 1.08193C9.4521 0.363998 8.5734 0 7.55862 0C6.54361 0 5.66503 0.363998 4.94698 1.08205C4.22892 1.8001 3.86481 2.6788 3.86481 3.69357C3.86481 4.70858 4.22892 5.58728 4.94698 6.30533C5.66526 7.02326 6.54396 7.38738 7.55862 7.38738ZM5.58254 1.7175C6.13351 1.16653 6.77984 0.898705 7.55862 0.898705C8.33728 0.898705 8.98373 1.16653 9.53482 1.7175C10.0858 2.26858 10.3537 2.91503 10.3537 3.69357C10.3537 4.47235 10.0858 5.11868 9.53482 5.66976C8.98373 6.22085 8.33728 6.48867 7.55862 6.48867C6.78008 6.48867 6.13375 6.22074 5.58254 5.66976C5.03145 5.11879 4.76351 4.47235 4.76351 3.69357C4.76351 2.91503 5.03145 2.26858 5.58254 1.7175Z" fill="#666262"/>
<path id="Vector_2" d="M14.0219 11.7919C14.0012 11.4931 13.9593 11.1671 13.8976 10.8229C13.8354 10.4761 13.7552 10.1483 13.6593 9.84863C13.5601 9.53892 13.4254 9.23307 13.2587 8.93997C13.0859 8.63577 12.8827 8.37087 12.6548 8.15289C12.4165 7.92485 12.1247 7.74151 11.7872 7.60777C11.451 7.47474 11.0783 7.40734 10.6797 7.40734C10.5231 7.40734 10.3717 7.47158 10.0793 7.66194C9.89938 7.7793 9.68889 7.91502 9.45395 8.06514C9.25305 8.19314 8.9809 8.31307 8.64475 8.42165C8.31679 8.52777 7.98379 8.58159 7.65501 8.58159C7.32646 8.58159 6.99347 8.52777 6.66528 8.42165C6.32947 8.31319 6.05721 8.19326 5.85666 8.06526C5.62394 7.91654 5.41333 7.78082 5.23069 7.66183C4.93853 7.47146 4.78713 7.40723 4.63058 7.40723C4.23183 7.40723 3.85929 7.47474 3.52314 7.60789C3.18593 7.74139 2.89401 7.92473 2.65543 8.15301C2.42751 8.3711 2.22439 8.63588 2.05169 8.93997C1.8852 9.23307 1.75041 9.5388 1.65119 9.84874C1.55536 10.1484 1.47522 10.4761 1.41297 10.8229C1.35119 11.1667 1.30942 11.4928 1.28871 11.7923C1.26835 12.0852 1.25806 12.3899 1.25806 12.6979C1.25806 13.4984 1.51254 14.1465 2.01437 14.6245C2.51 15.0961 3.16569 15.3353 3.9633 15.3353H11.3477C12.145 15.3353 12.8007 15.0961 13.2965 14.6245C13.7984 14.1469 14.0529 13.4986 14.0529 12.6978C14.0528 12.3888 14.0424 12.084 14.0219 11.7919ZM12.6768 13.9734C12.3493 14.2851 11.9145 14.4366 11.3475 14.4366H3.9633C3.39619 14.4366 2.9614 14.2851 2.63402 13.9735C2.31285 13.6677 2.15676 13.2504 2.15676 12.6979C2.15676 12.4105 2.16624 12.1268 2.1852 11.8544C2.20368 11.5872 2.24147 11.2936 2.29752 10.9817C2.35286 10.6736 2.4233 10.3845 2.50707 10.1228C2.58746 9.87179 2.69709 9.62328 2.83305 9.38389C2.9628 9.15573 3.1121 8.95998 3.27684 8.80226C3.43094 8.65472 3.62516 8.53397 3.85402 8.44341C4.06568 8.35964 4.30355 8.31377 4.56178 8.30687C4.59325 8.3236 4.6493 8.35554 4.74009 8.41475C4.92484 8.53514 5.13779 8.6725 5.3732 8.82285C5.63857 8.99204 5.98045 9.14485 6.38891 9.27671C6.8065 9.41173 7.23239 9.4803 7.65513 9.4803C8.07786 9.4803 8.50388 9.41173 8.92123 9.27683C9.33004 9.14473 9.67181 8.99204 9.93752 8.82262C10.1784 8.66864 10.3854 8.53526 10.5702 8.41475C10.661 8.35566 10.717 8.3236 10.7485 8.30687C11.0068 8.31377 11.2447 8.35964 11.4565 8.44341C11.6852 8.53397 11.8794 8.65484 12.0335 8.80226C12.1983 8.95987 12.3476 9.15561 12.4773 9.384C12.6134 9.62328 12.7232 9.87191 12.8034 10.1226C12.8873 10.3847 12.9579 10.6737 13.0131 10.9816C13.069 11.2941 13.1069 11.5878 13.1254 11.8545V11.8548C13.1445 12.1261 13.1541 12.4097 13.1542 12.6979C13.1541 13.2505 12.998 13.6677 12.6768 13.9734Z" fill="#666262"/>
</g>
<defs>
<clipPath id="clip0_86_990">
<rect width="15.3359" height="15.3359" fill="white"/>
</clipPath>
</defs>
</svg>
