<svg width="34" height="34" viewBox="0 0 34 34" fill="none" xmlns="http://www.w3.org/2000/svg">
<g id="fi_4208467">
<path id="Vector" d="M17 4.58179C14.544 4.58184 12.1431 5.31018 10.101 6.6747C8.05895 8.03923 6.46735 9.97865 5.52749 12.2477C4.58764 14.5168 4.34174 17.0136 4.8209 19.4224C5.30006 21.8313 6.48275 24.0439 8.21942 25.7806C9.95609 27.5173 12.1687 28.6999 14.5776 29.1791C16.9864 29.6583 19.4832 29.4124 21.7523 28.4725C24.0214 27.5327 25.9608 25.9411 27.3253 23.899C28.6898 21.8569 29.4182 19.456 29.4182 17C29.4148 13.7076 28.1053 10.5509 25.7772 8.22281C23.4491 5.89468 20.2924 4.58523 17 4.58179ZM17 28.488C14.7278 28.488 12.5067 27.8142 10.6175 26.5518C8.72827 25.2894 7.25583 23.4951 6.38636 21.3959C5.51689 19.2967 5.28943 16.9867 5.73276 14.7582C6.17609 12.5297 7.27029 10.4828 8.877 8.87613C10.4837 7.2695 12.5307 6.17539 14.7593 5.73217C16.9878 5.28894 19.2977 5.5165 21.3969 6.38607C23.4961 7.25564 25.2902 8.72816 26.5526 10.6174C27.8149 12.5067 28.4886 14.7279 28.4885 17C28.4849 20.0458 27.2734 22.9658 25.1196 25.1195C22.9659 27.2732 20.0458 28.4846 17 28.488Z" fill="#4CA1D1"/>
<path id="Vector_2" d="M23.1359 16.092L14.6927 11.217C14.5335 11.1253 14.3528 11.077 14.169 11.0771C13.9852 11.0773 13.8046 11.1257 13.6455 11.2177C13.4863 11.3097 13.3542 11.4419 13.2622 11.6011C13.1703 11.7603 13.1219 11.9408 13.1218 12.1246V21.8747C13.1211 22.0589 13.1691 22.24 13.2609 22.3998C13.3528 22.5595 13.4851 22.6921 13.6447 22.7842C13.8042 22.8763 13.9853 22.9247 14.1695 22.9244C14.3537 22.924 14.5346 22.875 14.6938 22.7823L23.1359 17.907C23.2951 17.815 23.4273 17.6827 23.5193 17.5234C23.6112 17.3641 23.6596 17.1834 23.6596 16.9995C23.6596 16.8156 23.6112 16.6349 23.5193 16.4756C23.4273 16.3163 23.2951 16.184 23.1359 16.092ZM22.6711 17.1014L14.2282 21.9769C14.2102 21.9873 14.1898 21.9927 14.1691 21.9927C14.1484 21.9926 14.128 21.9872 14.11 21.9768C14.0921 21.9665 14.0771 21.9516 14.0667 21.9337C14.0563 21.9157 14.0508 21.8954 14.0507 21.8747V12.1246C14.0501 12.1037 14.0554 12.0831 14.0658 12.065C14.0763 12.0469 14.0916 12.032 14.11 12.0221C14.1279 12.0113 14.1483 12.0055 14.1692 12.0051C14.19 12.0054 14.2104 12.0113 14.2282 12.0221L22.6721 16.8971C22.69 16.9076 22.7049 16.9225 22.7152 16.9405C22.7256 16.9584 22.731 16.9788 22.731 16.9995C22.731 17.0203 22.7256 17.0406 22.7152 17.0586C22.7049 17.0766 22.69 17.0915 22.6721 17.1019L22.6711 17.1014Z" fill="#4CA1D1"/>
</g>
</svg>
