<svg width="15" height="15" viewBox="0 0 15 15" fill="none" xmlns="http://www.w3.org/2000/svg">
<path id="Vector" d="M12.4478 0.566023C11.6918 -0.188674 10.4675 -0.188674 9.71143 0.566023L9.02647 1.25474L1.73506 8.54228L1.71956 8.55789C1.71581 8.56165 1.71581 8.56564 1.71182 8.56564C1.70407 8.57726 1.69245 8.58876 1.68482 8.60039C1.68482 8.60426 1.68082 8.60426 1.68082 8.60813C1.67308 8.61976 1.66932 8.6275 1.66145 8.63912C1.6577 8.643 1.6577 8.64675 1.65383 8.65075C1.64995 8.66237 1.64608 8.67012 1.64208 8.68174C1.64208 8.68549 1.63833 8.68549 1.63833 8.68949L0.0205874 13.5542C-0.0268687 13.6927 0.00920764 13.8461 0.113441 13.9489C0.186684 14.0212 0.28547 14.0616 0.388251 14.0612C0.430259 14.0605 0.471904 14.054 0.512097 14.0419L5.37308 12.4202C5.37683 12.4202 5.37683 12.4202 5.38082 12.4165C5.39305 12.4129 5.40479 12.4076 5.41557 12.4009C5.41859 12.4005 5.42126 12.3992 5.42344 12.3971C5.43494 12.3894 5.45043 12.3815 5.46206 12.3737C5.47356 12.3661 5.4853 12.3545 5.49692 12.3468C5.5008 12.3428 5.50455 12.3428 5.50455 12.339C5.50854 12.3351 5.51629 12.3314 5.52016 12.3235L13.4965 4.34713C14.2512 3.59111 14.2512 2.36681 13.4965 1.6109L12.4478 0.566023ZM5.24923 11.5107L2.55561 8.81721L9.2974 2.07542L11.991 4.76891L5.24923 11.5107ZM2.17621 9.53316L4.5294 11.8862L0.995858 13.0627L2.17621 9.53316ZM12.9509 3.80526L12.5406 4.21941L9.8469 1.52568L10.2612 1.11165C10.7143 0.658877 11.4488 0.658877 11.902 1.11165L12.9547 2.16428C13.4044 2.61947 13.4027 3.35225 12.9509 3.80526Z" fill="#666262"/>
</svg>
