<svg width="13" height="13" viewBox="0 0 13 13" fill="none" xmlns="http://www.w3.org/2000/svg">
<g id="fi_1077063">
<path id="Vector" d="M6.4073 6.26215C7.26761 6.26215 8.01247 5.95359 8.62125 5.34482C9.22983 4.73614 9.53848 3.99138 9.53848 3.13098C9.53848 2.27087 9.22993 1.52601 8.62115 0.917135C8.01237 0.308555 7.26751 0 6.4073 0C5.5469 0 4.80214 0.308555 4.19346 0.917235C3.58478 1.52591 3.27612 2.27077 3.27612 3.13098C3.27612 3.99138 3.58478 4.73624 4.19346 5.34491C4.80234 5.9535 5.5472 6.26215 6.4073 6.26215ZM4.73222 1.45589C5.19926 0.988844 5.74715 0.761817 6.4073 0.761817C7.06736 0.761817 7.61534 0.988844 8.08249 1.45589C8.54954 1.92304 8.77666 2.47102 8.77666 3.13098C8.77666 3.79113 8.54954 4.33901 8.08249 4.80616C7.61534 5.27331 7.06736 5.50033 6.4073 5.50033C5.74734 5.50033 5.19946 5.27321 4.73222 4.80616C4.26507 4.33911 4.03794 3.79113 4.03794 3.13098C4.03794 2.47102 4.26507 1.92304 4.73222 1.45589Z" fill="#666262"/>
<path id="Vector_2" d="M11.8861 9.99614C11.8685 9.74283 11.833 9.46651 11.7808 9.17472C11.728 8.88074 11.66 8.60283 11.5787 8.34883C11.4946 8.08629 11.3805 7.82703 11.2391 7.57858C11.0926 7.32071 10.9204 7.09616 10.7272 6.91138C10.5252 6.71808 10.2778 6.56266 9.99181 6.44929C9.70676 6.33652 9.39086 6.2794 9.05295 6.2794C8.92024 6.2794 8.7919 6.33385 8.54404 6.49522C8.3915 6.5947 8.21307 6.70975 8.01392 6.837C7.84362 6.9455 7.61292 7.04716 7.32797 7.1392C7.04996 7.22916 6.76769 7.27479 6.48899 7.27479C6.21049 7.27479 5.92822 7.22916 5.65001 7.1392C5.36536 7.04726 5.13456 6.9456 4.96456 6.8371C4.76729 6.71104 4.58876 6.59598 4.43394 6.49512C4.18628 6.33375 4.05794 6.2793 3.92523 6.2793C3.58722 6.2793 3.27142 6.33652 2.98647 6.44939C2.70063 6.56256 2.45317 6.71798 2.25094 6.91148C2.05773 7.09636 1.88555 7.32081 1.73916 7.57858C1.59802 7.82703 1.48376 8.08619 1.39966 8.34893C1.31843 8.60293 1.25049 8.88074 1.19772 9.17472C1.14536 9.46611 1.10995 9.74253 1.09239 9.99644C1.07513 10.2447 1.06641 10.5031 1.06641 10.7641C1.06641 11.4427 1.28213 11.9921 1.70752 12.3972C2.12766 12.797 2.68347 12.9998 3.3596 12.9998H9.61918C10.2951 12.9998 10.8509 12.797 11.2712 12.3972C11.6966 11.9924 11.9124 11.4428 11.9124 10.764C11.9123 10.5021 11.9034 10.2437 11.8861 9.99614ZM10.7459 11.8453C10.4683 12.1095 10.0997 12.2379 9.61908 12.2379H3.3596C2.87886 12.2379 2.5103 12.1095 2.23279 11.8454C1.96053 11.5862 1.82822 11.2324 1.82822 10.7641C1.82822 10.5205 1.83626 10.28 1.85233 10.0491C1.868 9.82257 1.90003 9.57372 1.94754 9.30931C1.99445 9.04816 2.05416 8.80308 2.12518 8.58121C2.19331 8.36847 2.28625 8.1578 2.4015 7.95488C2.51149 7.76147 2.63805 7.59554 2.77769 7.46184C2.90832 7.33677 3.07296 7.23442 3.26696 7.15765C3.44638 7.08664 3.64802 7.04776 3.86691 7.04191C3.89359 7.05609 3.9411 7.08317 4.01807 7.13335C4.17467 7.23541 4.35519 7.35185 4.55474 7.4793C4.77969 7.62272 5.0695 7.75225 5.41574 7.86403C5.76972 7.97848 6.13074 8.0366 6.48909 8.0366C6.84743 8.0366 7.20856 7.97848 7.56234 7.86413C7.90888 7.75215 8.19859 7.62272 8.42384 7.4791C8.62805 7.34858 8.8035 7.23551 8.96011 7.13335C9.03708 7.08327 9.08459 7.05609 9.11127 7.04191C9.33026 7.04776 9.5319 7.08664 9.71142 7.15765C9.90532 7.23442 10.07 7.33687 10.2006 7.46184C10.3402 7.59544 10.4668 7.76137 10.5768 7.95498C10.6921 8.1578 10.7852 8.36856 10.8532 8.58111C10.9243 8.80328 10.9841 9.04826 11.0309 9.30921C11.0783 9.57412 11.1105 9.82307 11.1262 10.0492V10.0494C11.1423 10.2794 11.1505 10.5198 11.1506 10.7641C11.1505 11.2325 11.0181 11.5862 10.7459 11.8453Z" fill="#666262"/>
</g>
</svg>
