<svg width="16" height="16" viewBox="0 0 16 16" fill="none" xmlns="http://www.w3.org/2000/svg">
<g id="fi_4211109">
<g id="50-Income">
<path id="Vector" d="M13 7.09V6.5C13 6.10218 12.842 5.72064 12.5607 5.43934C12.2794 5.15804 11.8978 5 11.5 5H10.5C10.3674 5 10.2402 5.05268 10.1464 5.14645C10.0527 5.24021 10 5.36739 10 5.5C10 5.63261 10.0527 5.75979 10.1464 5.85355C10.2402 5.94732 10.3674 6 10.5 6H11.5C11.6326 6 11.7598 6.05268 11.8536 6.14645C11.9473 6.24021 12 6.36739 12 6.5V7H3.5C3.36739 7 3.24021 6.94732 3.14645 6.85355C3.05268 6.75979 3 6.63261 3 6.5C3 6.36739 3.05268 6.24021 3.14645 6.14645C3.24021 6.05268 3.36739 6 3.5 6H4.5C4.63261 6 4.75979 5.94732 4.85355 5.85355C4.94732 5.75979 5 5.63261 5 5.5C5 5.36739 4.94732 5.24021 4.85355 5.14645C4.75979 5.05268 4.63261 5 4.5 5H3.5C3.10218 5 2.72064 5.15804 2.43934 5.43934C2.15804 5.72064 2 6.10218 2 6.5V13.5C2 13.8978 2.15804 14.2794 2.43934 14.5607C2.72064 14.842 3.10218 15 3.5 15H12.5C12.8978 15 13.2794 14.842 13.5607 14.5607C13.842 14.2794 14 13.8978 14 13.5V8.5C13.9991 8.19053 13.9026 7.8889 13.7235 7.63647C13.5445 7.38404 13.2918 7.19316 13 7.09ZM12.5 14H3.5C3.36739 14 3.24021 13.9473 3.14645 13.8536C3.05268 13.7598 3 13.6326 3 13.5V7.91C3.16034 7.96821 3.32943 7.99865 3.5 8H12.5C12.6326 8 12.7598 8.05268 12.8536 8.14645C12.9473 8.24021 13 8.36739 13 8.5V9.5H11.5C11.1022 9.5 10.7206 9.65804 10.4393 9.93934C10.158 10.2206 10 10.6022 10 11C10 11.3978 10.158 11.7794 10.4393 12.0607C10.7206 12.342 11.1022 12.5 11.5 12.5H13V13.5C13 13.6326 12.9473 13.7598 12.8536 13.8536C12.7598 13.9473 12.6326 14 12.5 14ZM13 10.5V11.5H11.5C11.3674 11.5 11.2402 11.4473 11.1464 11.3536C11.0527 11.2598 11 11.1326 11 11C11 10.8674 11.0527 10.7402 11.1464 10.6464C11.2402 10.5527 11.3674 10.5 11.5 10.5H13Z" fill="#666262"/>
<path id="Vector_2" d="M7.14509 5.855C7.19157 5.90186 7.24687 5.93906 7.3078 5.96445C7.36873 5.98983 7.43409 6.0029 7.50009 6.0029C7.5661 6.0029 7.63145 5.98983 7.69238 5.96445C7.75331 5.93906 7.80861 5.90186 7.85509 5.855L9.35509 4.355C9.44924 4.26085 9.50214 4.13315 9.50214 4C9.50214 3.86685 9.44924 3.73915 9.35509 3.645C9.26094 3.55085 9.13324 3.49795 9.00009 3.49795C8.86694 3.49795 8.73924 3.55085 8.64509 3.645L8.00009 4.295V1.5C8.00009 1.36739 7.94741 1.24021 7.85365 1.14645C7.75988 1.05268 7.6327 1 7.50009 1C7.36748 1 7.24031 1.05268 7.14654 1.14645C7.05277 1.24021 7.00009 1.36739 7.00009 1.5V4.295L6.35509 3.645C6.30847 3.59838 6.25313 3.5614 6.19222 3.53617C6.13131 3.51094 6.06602 3.49795 6.00009 3.49795C5.93416 3.49795 5.86888 3.51094 5.80797 3.53617C5.74706 3.5614 5.69171 3.59838 5.64509 3.645C5.59847 3.69162 5.56149 3.74696 5.53626 3.80788C5.51103 3.86879 5.49805 3.93407 5.49805 4C5.49805 4.06593 5.51103 4.13121 5.53626 4.19212C5.56149 4.25304 5.59847 4.30838 5.64509 4.355L7.14509 5.855Z" fill="#666262"/>
</g>
</g>
</svg>
