<svg width="28" height="28" viewBox="0 0 28 28" fill="none" xmlns="http://www.w3.org/2000/svg">
<g id="fi_950299" clip-path="url(#clip0_97_1665)">
<g id="Group">
<g id="Group_2">
<path id="Vector" d="M22.7231 24.3871L21.6776 21.2502C21.3123 20.155 20.3801 19.3466 19.2439 19.1398L16.2257 18.5906V18.3567C16.751 18.0519 17.208 17.644 17.572 17.1613H18.4838C19.2308 17.1613 19.8387 16.5534 19.8387 15.8064V10.3871C19.8387 7.14992 17.2048 4.51611 13.9677 4.51611C10.7305 4.51611 8.09671 7.14992 8.09671 10.3871V13.5484C8.09671 14.4191 8.71588 15.1475 9.53691 15.3173C9.79026 16.6153 10.6014 17.7136 11.7096 18.3567V18.5906L8.69104 19.1398C7.55523 19.3466 6.62265 20.155 6.25775 21.2502L6.0771 21.7926L4.53891 20.2544C4.36278 20.0782 4.36278 19.7915 4.53891 19.6153L6.32278 17.8319L2.97452 14.4837L0.958521 16.4997C0.361489 17.0967 0.0327148 17.8906 0.0327148 18.7351C0.0327148 19.5797 0.361489 20.3731 0.958521 20.9702L7.06207 27.0737C7.6591 27.6708 8.45304 28 9.29755 28C10.1421 28 10.9356 27.6708 11.5186 27.0873L13.7184 25.0717L13.0324 24.3871H22.7231ZM18.9354 15.8064C18.9354 16.0557 18.7327 16.258 18.4838 16.258H18.104C18.235 15.9595 18.3343 15.6448 18.3985 15.3173C18.5917 15.2771 18.7697 15.2004 18.9354 15.1037V15.8064ZM18.4838 14.326V12.7707C18.7525 12.9274 18.9354 13.2155 18.9354 13.5484C18.9354 13.8812 18.7525 14.1693 18.4838 14.326ZM9.45155 14.326C9.18284 14.1693 8.99994 13.8812 8.99994 13.5484C8.99994 13.2155 9.18284 12.9274 9.45155 12.7707V14.326ZM9.45155 11.2903V11.806C9.29078 11.848 9.13994 11.9113 8.99994 11.993V10.3871C8.99994 7.64805 11.2286 5.41934 13.9677 5.41934C16.7067 5.41934 18.9354 7.64805 18.9354 10.3871V11.993C18.7954 11.9113 18.6446 11.8476 18.4838 11.806V11.2903H18.0322C16.6968 11.2903 15.4413 10.77 14.4965 9.82573L13.9677 9.29689L13.4388 9.82573C12.4941 10.77 11.2386 11.2903 9.90317 11.2903H9.45155ZM10.3548 14.4516V12.1764C11.711 12.0743 12.9755 11.5148 13.9677 10.5713C14.9599 11.5148 16.2244 12.0748 17.5806 12.1764V14.4516C17.5806 15.11 17.4008 15.726 17.0919 16.258H13.9677V17.1613H16.3495C15.7127 17.7217 14.8804 18.0645 13.9677 18.0645C11.9756 18.0645 10.3548 16.4437 10.3548 14.4516ZM15.3225 18.7595V18.7808L13.9677 20.1356L12.6128 18.7808V18.7595C13.041 18.8941 13.4957 18.9677 13.9677 18.9677C14.4396 18.9677 14.8944 18.8941 15.3225 18.7595ZM7.114 21.5356C7.37459 20.7534 8.04071 20.1758 8.85226 20.0277L12.009 19.4541L13.9677 21.4128L15.9259 19.4546L19.0822 20.0281C19.8937 20.1762 20.5599 20.7534 20.8205 21.536L21.4703 23.4839H12.1292L10.3701 21.7248L8.41555 23.4929C8.2453 23.664 7.94768 23.664 7.77697 23.4929L6.79065 22.5066L7.114 21.5356ZM2.97407 15.7608L5.04517 17.8319L4.55471 18.3224L2.48362 16.2513L2.97407 15.7608ZM10.8931 26.436C10.4668 26.8615 9.89955 27.0968 9.29665 27.0968C8.69375 27.0968 8.12652 26.8615 7.69975 26.4351L1.5962 20.332C1.16988 19.9057 0.935037 19.3385 0.935037 18.7356C0.935037 18.1322 1.16988 17.565 1.5962 17.1387L1.84459 16.8903L3.91568 18.9614L3.89942 18.9777C3.37149 19.506 3.37149 20.3655 3.89942 20.8939L7.13794 24.1324C7.394 24.388 7.73407 24.5293 8.09626 24.5293C8.45846 24.5293 8.79852 24.3884 9.03788 24.1482L9.07175 24.1179L11.1523 26.1985L10.8931 26.436ZM11.8189 25.587L9.74284 23.511L10.3394 22.9717L12.4119 25.0442L11.8189 25.587Z" fill="#4CA1D1"/>
</g>
</g>
<g id="Group_3">
<g id="Group_4">
<path id="Vector_2" d="M26.613 0H20.2904C19.5434 0 18.9355 0.607871 18.9355 1.35484V4.96774C18.9355 5.71471 19.5434 6.32258 20.2904 6.32258H21.4966L21.0297 9.04626L25.3877 6.32258H26.613C27.3599 6.32258 27.9678 5.71471 27.9678 4.96774V1.35484C27.9678 0.607871 27.3599 0 26.613 0ZM27.0646 4.96774C27.0646 5.21658 26.8618 5.41935 26.613 5.41935H25.1285L22.2603 7.21181L22.5679 5.41935H20.2904C20.0415 5.41935 19.8388 5.21658 19.8388 4.96774V1.35484C19.8388 1.106 20.0415 0.903226 20.2904 0.903226H26.613C26.8618 0.903226 27.0646 1.106 27.0646 1.35484V4.96774Z" fill="#4CA1D1"/>
</g>
</g>
<g id="Group_5">
<g id="Group_6">
<path id="Vector_3" d="M26.1613 1.8064H20.7419V2.70962H26.1613V1.8064Z" fill="#4CA1D1"/>
</g>
</g>
<g id="Group_7">
<g id="Group_8">
<path id="Vector_4" d="M24.3548 3.61279H20.7419V4.51602H24.3548V3.61279Z" fill="#4CA1D1"/>
</g>
</g>
<g id="Group_9">
<g id="Group_10">
<path id="Vector_5" d="M26.1613 3.61279H25.2581V4.51602H26.1613V3.61279Z" fill="#4CA1D1"/>
</g>
</g>
<g id="Group_11">
<g id="Group_12">
<path id="Vector_6" d="M13.9676 1.35474C8.06687 1.35474 2.98397 5.43641 1.66255 11.1299L0.806743 9.70325L0.0322266 10.168L1.61965 12.8131L4.26474 11.2256L3.80003 10.4511L2.57616 11.1854C3.85603 5.97699 8.53971 2.25796 13.9676 2.25796C15.154 2.25796 16.3246 2.43409 17.4469 2.78183L17.7142 1.91925C16.5053 1.54441 15.2448 1.35474 13.9676 1.35474Z" fill="#4CA1D1"/>
</g>
</g>
<g id="Group_13">
<g id="Group_14">
<path id="Vector_7" d="M27.7483 9.99953L25.1032 8.41211L23.5162 11.0577L24.2908 11.5224L25.0811 10.205C25.497 11.4221 25.7097 12.6952 25.7097 13.9999C25.7097 16.6857 24.7794 19.3113 23.0908 21.3928L23.7922 21.9619C25.6113 19.72 26.6129 16.892 26.6129 13.9999C26.6129 12.6184 26.3903 11.2695 25.9563 9.97785L27.2836 10.774L27.7483 9.99953Z" fill="#4CA1D1"/>
</g>
</g>
</g>
<defs>
<clipPath id="clip0_97_1665">
<rect width="28" height="28" fill="white"/>
</clipPath>
</defs>
</svg>
