<svg width="17" height="17" viewBox="0 0 17 17" fill="none" xmlns="http://www.w3.org/2000/svg">
<g id="fi_1077063" clip-path="url(#clip0_86_1270)">
<path id="Vector" d="M8.38834 8.16461C9.42428 8.16461 10.3212 7.79306 11.0543 7.06C11.7871 6.32706 12.1588 5.43025 12.1588 4.3942C12.1588 3.3585 11.7872 2.46158 11.0541 1.72839C10.3211 0.995571 9.42416 0.624023 8.38834 0.624023C7.35228 0.624023 6.45548 0.995571 5.72253 1.72851C4.98959 2.46146 4.61792 3.35838 4.61792 4.3942C4.61792 5.43025 4.98959 6.32718 5.72253 7.06012C6.45572 7.79294 7.35264 8.16461 8.38834 8.16461ZM6.37128 2.37714C6.93368 1.81474 7.59341 1.54137 8.38834 1.54137C9.18315 1.54137 9.843 1.81474 10.4055 2.37714C10.9679 2.93966 11.2414 3.59951 11.2414 4.3942C11.2414 5.18913 10.9679 5.84886 10.4055 6.41137C9.843 6.97389 9.18315 7.24727 8.38834 7.24727C7.59365 7.24727 6.93392 6.97377 6.37128 6.41137C5.80876 5.84898 5.53527 5.18913 5.53527 4.3942C5.53527 3.59951 5.80876 2.93966 6.37128 2.37714Z" fill="white"/>
<path id="Vector_2" d="M14.9856 12.6612C14.9644 12.3562 14.9217 12.0234 14.8587 11.6721C14.7952 11.3181 14.7134 10.9834 14.6155 10.6776C14.5142 10.3614 14.3767 10.0493 14.2065 9.75008C14.0301 9.43956 13.8228 9.16917 13.5902 8.94668C13.3469 8.71391 13.049 8.52676 12.7046 8.39025C12.3613 8.25446 11.981 8.18567 11.5741 8.18567C11.4143 8.18567 11.2597 8.25123 10.9613 8.44555C10.7776 8.56534 10.5627 8.70387 10.3229 8.8571C10.1178 8.98776 9.84004 9.11018 9.49692 9.22101C9.16215 9.32933 8.82225 9.38427 8.48665 9.38427C8.15129 9.38427 7.81139 9.32933 7.47639 9.22101C7.13363 9.1103 6.85571 8.98788 6.65101 8.85722C6.41346 8.70543 6.19849 8.56689 6.01205 8.44543C5.71384 8.25111 5.55929 8.18555 5.3995 8.18555C4.99248 8.18555 4.61221 8.25446 4.26909 8.39037C3.92489 8.52664 3.62691 8.71379 3.38339 8.9468C3.15074 9.16941 2.94341 9.43968 2.76713 9.75008C2.59718 10.0493 2.45959 10.3613 2.35832 10.6777C2.2605 10.9836 2.17869 11.3181 2.11516 11.6721C2.0521 12.023 2.00946 12.3558 1.98832 12.6616C1.96754 12.9605 1.95703 13.2716 1.95703 13.5859C1.95703 14.4031 2.21679 15.0646 2.72903 15.5525C3.23494 16.0339 3.90423 16.278 4.71838 16.278H12.2559C13.0698 16.278 13.7391 16.0339 14.2451 15.5525C14.7575 15.065 15.0172 14.4032 15.0172 13.5858C15.0171 13.2704 15.0065 12.9593 14.9856 12.6612ZM13.6126 14.8879C13.2783 15.206 12.8345 15.3607 12.2558 15.3607H4.71838C4.1395 15.3607 3.6957 15.206 3.36153 14.888C3.0337 14.5759 2.87438 14.1499 2.87438 13.5859C2.87438 13.2926 2.88405 13.003 2.9034 12.725C2.92227 12.4522 2.96084 12.1525 3.01805 11.8341C3.07454 11.5197 3.14644 11.2246 3.23195 10.9574C3.314 10.7012 3.42591 10.4476 3.56468 10.2032C3.69713 9.97031 3.84953 9.77051 4.01768 9.60951C4.17497 9.45891 4.37323 9.33566 4.60684 9.24322C4.82289 9.15771 5.06569 9.11089 5.32927 9.10385C5.3614 9.12092 5.4186 9.15353 5.51128 9.21396C5.69986 9.33685 5.91723 9.47707 6.15752 9.63053C6.42839 9.80323 6.77737 9.95921 7.1943 10.0938C7.62054 10.2316 8.05527 10.3016 8.48677 10.3016C8.91828 10.3016 9.35312 10.2316 9.77913 10.0939C10.1964 9.95909 10.5453 9.80323 10.8165 9.63029C11.0624 9.47312 11.2737 9.33697 11.4623 9.21396C11.5549 9.15365 11.6122 9.12092 11.6443 9.10385C11.908 9.11089 12.1508 9.15771 12.367 9.24322C12.6004 9.33566 12.7987 9.45903 12.956 9.60951C13.1241 9.77039 13.2765 9.97019 13.409 10.2033C13.5479 10.4476 13.6599 10.7013 13.7418 10.9573C13.8275 11.2248 13.8995 11.5198 13.9559 11.834C14.0129 12.153 14.0516 12.4528 14.0705 12.7251V12.7253C14.09 13.0023 14.0998 13.2918 14.0999 13.5859C14.0998 14.15 13.9404 14.5759 13.6126 14.8879Z" fill="white"/>
</g>
<defs>
<clipPath id="clip0_86_1270">
<rect width="15.654" height="15.654" fill="white" transform="translate(0.672852 0.624023)"/>
</clipPath>
</defs>
</svg>
