<svg width="20" height="20" viewBox="0 0 20 20" fill="none" xmlns="http://www.w3.org/2000/svg">
<g id="fi_3097412" clip-path="url(#clip0_58_2076)">
<path id="Vector" d="M18.3333 10.833C18.1123 10.833 17.9003 10.9208 17.7441 11.0771C17.5878 11.2334 17.5 11.4453 17.5 11.6663V15.1772C17.4993 15.7929 17.2544 16.3833 16.819 16.8187C16.3836 17.2541 15.7932 17.499 15.1775 17.4997H4.82248C4.20672 17.499 3.61636 17.2541 3.18096 16.8187C2.74555 16.3833 2.50064 15.7929 2.49998 15.1772V11.6663C2.49998 11.4453 2.41218 11.2334 2.2559 11.0771C2.09962 10.9208 1.88766 10.833 1.66665 10.833C1.44563 10.833 1.23367 10.9208 1.07739 11.0771C0.92111 11.2334 0.833313 11.4453 0.833313 11.6663V15.1772C0.834416 16.2348 1.25506 17.2488 2.00293 17.9967C2.75081 18.7446 3.76483 19.1652 4.82248 19.1663H15.1775C16.2351 19.1652 17.2492 18.7446 17.997 17.9967C18.7449 17.2488 19.1655 16.2348 19.1666 15.1772V11.6663C19.1666 11.4453 19.0788 11.2334 18.9226 11.0771C18.7663 10.9208 18.5543 10.833 18.3333 10.833Z" fill="black"/>
<path id="Vector_2" d="M5.58914 7.25631L9.16664 3.67881V14.1671C9.16664 14.3882 9.25444 14.6001 9.41072 14.7564C9.567 14.9127 9.77896 15.0005 9.99997 15.0005C10.221 15.0005 10.4329 14.9127 10.5892 14.7564C10.7455 14.6001 10.8333 14.3882 10.8333 14.1671V3.67881L14.4108 7.25631C14.568 7.4081 14.7785 7.4921 14.997 7.4902C15.2155 7.4883 15.4245 7.40066 15.579 7.24615C15.7335 7.09165 15.8211 6.88264 15.823 6.66414C15.8249 6.44564 15.7409 6.23514 15.5891 6.07797L10.5891 1.07797C10.4329 0.921747 10.2209 0.833984 9.99997 0.833984C9.779 0.833984 9.56708 0.921747 9.41081 1.07797L4.41081 6.07797C4.25901 6.23514 4.17501 6.44564 4.17691 6.66414C4.17881 6.88264 4.26645 7.09165 4.42096 7.24615C4.57546 7.40066 4.78447 7.4883 5.00297 7.4902C5.22147 7.4921 5.43197 7.4081 5.58914 7.25631Z" fill="black"/>
</g>
<defs>
<clipPath id="clip0_58_2076">
<rect width="20" height="20" fill="white"/>
</clipPath>
</defs>
</svg>
