<svg width="15" height="15" viewBox="0 0 15 15" fill="none" xmlns="http://www.w3.org/2000/svg">
<g id="fi_2572957" clip-path="url(#clip0_58_201)">
<path id="Vector" d="M5.625 6.25C3.90188 6.25 2.5 4.84813 2.5 3.125C2.5 1.40188 3.90188 0 5.625 0C7.34813 0 8.75 1.40188 8.75 3.125C8.75 4.84813 7.34813 6.25 5.625 6.25ZM5.625 0.9375C4.41875 0.9375 3.4375 1.91875 3.4375 3.125C3.4375 4.33125 4.41875 5.3125 5.625 5.3125C6.83125 5.3125 7.8125 4.33125 7.8125 3.125C7.8125 1.91875 6.83125 0.9375 5.625 0.9375Z" fill="#666262"/>
<path id="Vector_2" d="M5.78125 13.125H0.46875C0.21 13.125 0 12.915 0 12.6562V10.4688C0 8.83188 1.33188 7.5 2.96875 7.5H8.28125C8.54 7.5 8.75 7.71 8.75 7.96875C8.75 8.2275 8.54 8.4375 8.28125 8.4375H2.96875C1.84875 8.4375 0.9375 9.34875 0.9375 10.4688V12.1875H5.78125C6.04 12.1875 6.25 12.3975 6.25 12.6562C6.25 12.915 6.04 13.125 5.78125 13.125Z" fill="#666262"/>
<path id="Vector_3" d="M13.9062 15H8.59375C7.99063 15 7.5 14.5094 7.5 13.9062V11.0938C7.5 10.4906 7.99063 10 8.59375 10H13.9062C14.5094 10 15 10.4906 15 11.0938V13.9062C15 14.5094 14.5094 15 13.9062 15ZM8.59375 10.9375C8.5075 10.9375 8.4375 11.0075 8.4375 11.0938V13.9062C8.4375 13.9925 8.5075 14.0625 8.59375 14.0625H13.9062C13.9925 14.0625 14.0625 13.9925 14.0625 13.9062V11.0938C14.0625 11.0075 13.9925 10.9375 13.9062 10.9375H8.59375Z" fill="#666262"/>
<path id="Vector_4" d="M12.6562 10.9375C12.3975 10.9375 12.1875 10.7275 12.1875 10.4688V9.53125C12.1875 9.445 12.1175 9.375 12.0312 9.375H10.4688C10.3825 9.375 10.3125 9.445 10.3125 9.53125V10.4688C10.3125 10.7275 10.1025 10.9375 9.84375 10.9375C9.585 10.9375 9.375 10.7275 9.375 10.4688V9.53125C9.375 8.92813 9.86563 8.4375 10.4688 8.4375H12.0312C12.6344 8.4375 13.125 8.92813 13.125 9.53125V10.4688C13.125 10.7275 12.915 10.9375 12.6562 10.9375Z" fill="#666262"/>
<path id="Vector_5" d="M11.25 13.1248C11.1812 13.1248 11.1125 13.1098 11.0487 13.0792L7.76746 11.5167C7.53371 11.4055 7.43434 11.1261 7.54559 10.8917C7.65684 10.658 7.93621 10.5592 8.17059 10.6698L11.25 12.1367L14.33 10.6698C14.5643 10.5592 14.8437 10.658 14.955 10.8917C15.0662 11.1255 14.9668 11.4048 14.7331 11.5167L11.4518 13.0792C11.3875 13.1098 11.3187 13.1248 11.25 13.1248Z" fill="#666262"/>
</g>
<defs>
<clipPath id="clip0_58_201">
<rect width="15" height="15" fill="white"/>
</clipPath>
</defs>
</svg>
