<svg width="68" height="80" viewBox="0 0 68 80" fill="none" xmlns="http://www.w3.org/2000/svg">
<rect width="68" height="80" fill="white"/>
<path d="M13 79.5V2H51L67 20V79.5H13Z" fill="url(#paint0_linear_140_171)"/>
<path d="M67 20V79.5H13V2H51M67 20H51V2M67 20L51 2" stroke="black" stroke-width="0.5"/>
<path d="M50 42.4186H11.9701C5.73821 42.4186 2.59057 41.8354 1.47904 40.9357L1.37139 60H50V42.4186Z" fill="#B54E44"/>
<path d="M13.217 33C7.00429 35.1827 -1.05672 38.883 1.47904 40.9357M1.47904 40.9357C2.59057 41.8354 5.73821 42.4186 11.9701 42.4186C32.4191 42.4186 45.8438 42.4186 50 42.4186V60H1.37139L1.47904 40.9357Z" stroke="black" stroke-width="0.5"/>
<path d="M19.8326 55V46.2727H23.4718C24.1252 46.2727 24.6905 46.4006 25.1678 46.6562C25.6479 46.9091 26.0172 47.2642 26.2757 47.7216C26.5371 48.1761 26.6678 48.7045 26.6678 49.3068C26.6678 49.9148 26.5343 50.4446 26.2672 50.8963C26.0002 51.348 25.6223 51.6974 25.1337 51.9446C24.6479 52.1918 24.0712 52.3153 23.4036 52.3153H21.1749V50.6151H22.9945C23.3042 50.6151 23.5641 50.5611 23.7743 50.4531C23.9846 50.3452 24.1451 50.1932 24.2559 49.9972C24.3667 49.8011 24.4221 49.571 24.4221 49.3068C24.4221 49.0398 24.3667 48.8111 24.2559 48.6207C24.1451 48.4276 23.9831 48.2784 23.7701 48.1733C23.5598 48.0682 23.3013 48.0156 22.9945 48.0156H21.9973V55H19.8326ZM30.9281 55H27.6724V46.2727H30.9153C31.8074 46.2727 32.5758 46.4474 33.2207 46.7969C33.8684 47.1435 34.367 47.6435 34.7164 48.2969C35.0687 48.9474 35.2449 49.7259 35.2449 50.6321C35.2449 51.5412 35.0687 52.3224 34.7164 52.9759C34.367 53.6293 33.8699 54.1307 33.225 54.4801C32.5801 54.8267 31.8145 55 30.9281 55ZM29.8372 53.1591H30.8429C31.3201 53.1591 31.725 53.0781 32.0574 52.9162C32.3897 52.7543 32.6412 52.4901 32.8116 52.1236C32.9849 51.7543 33.0716 51.2571 33.0716 50.6321C33.0716 50.0099 32.9849 49.5156 32.8116 49.1491C32.6383 48.7798 32.3826 48.5156 32.0446 48.3565C31.7093 48.1946 31.296 48.1136 30.8045 48.1136H29.8372V53.1591ZM36.438 55V46.2727H42.4338V48.0284H38.6028V49.7585H42.0545V51.5142H38.6028V55H36.438Z" fill="white"/>
<path d="M23 23.5H51M23 31H51" stroke="black" stroke-width="0.5"/>
<defs>
<linearGradient id="paint0_linear_140_171" x1="40" y1="2" x2="40" y2="79.5" gradientUnits="userSpaceOnUse">
<stop stop-color="#DA5252"/>
<stop offset="0.500078" stop-color="#89372C"/>
<stop offset="1" stop-color="#921C1C"/>
</linearGradient>
</defs>
</svg>
