<svg width="24" height="24" viewBox="0 0 24 24" fill="none" xmlns="http://www.w3.org/2000/svg">
<g id="fi_2940431" clip-path="url(#clip0_58_2065)">
<g id="layer2">
<path id="path1896" d="M0.341465 0.000428741C-0.149822 0.075802 -0.087247 0.750412 0.377323 0.750412C0.377323 0.750412 4.90288 0.756648 8.37936 1.40372C10.1461 1.73252 11.52 2.2152 12.0061 2.82385C12.2228 3.09522 12.2198 3.38293 12.039 3.71812C11.8201 4.12407 11.2707 4.67532 10.2952 5.31257C9.11017 6.08672 8.37137 6.73661 7.98087 7.36111C7.78563 7.67336 7.67722 7.98707 7.67913 8.29932C7.68056 8.61157 7.80102 8.90544 7.98893 9.14379C8.36463 9.62048 8.98123 9.93056 9.73859 10.2014C10.3234 10.4105 11.0077 10.5912 11.7336 10.7558L6.78342 15.7076C5.37375 15.7291 4.06104 15.8561 2.95964 16.2159C1.83864 16.5821 0.917139 17.2085 0.41827 18.2066C-0.215671 19.4748 0.103369 20.6463 0.562199 21.4622C1.02101 22.2782 1.63623 22.7878 1.63623 22.7878C2.02 23.1091 2.5019 22.5334 2.11814 22.2121C2.11814 22.2121 1.60635 21.7836 1.22169 21.0996C0.851815 20.4418 0.589397 19.5425 1.08846 18.5442C1.47986 17.7612 2.19211 17.2576 3.19259 16.9307C3.98218 16.6728 4.94703 16.5365 6.00422 16.4825L3.81512 18.6746C3.76438 18.7244 3.72881 18.7877 3.71265 18.857L2.63312 23.5407C2.5709 23.817 2.81268 24.0509 3.08133 23.9904L7.76785 22.9094C7.83603 22.8936 7.89995 22.8562 7.94948 22.8068L13.9792 16.7777C15.6134 16.8463 17.1492 16.8421 18.4226 16.5982C19.7354 16.3468 20.8188 15.8195 21.3316 14.7936C21.5322 14.3922 21.6095 14 21.5389 13.6166C21.4701 13.2433 21.2629 12.9196 20.983 12.6535C20.5298 12.2226 19.8532 11.8981 19.1147 11.6413L23.4409 7.31424C24.1908 6.56421 24.182 5.36456 23.4409 4.62338L21.9988 3.18127C21.6283 2.81068 21.1412 2.62025 20.6534 2.62025C20.1657 2.62025 19.6786 2.81068 19.308 3.18127L18.2461 4.24326C18.239 4.24907 18.2333 4.25516 18.2264 4.26157L16.424 6.06475C16.4212 6.06787 16.4183 6.07105 16.4155 6.07428L12.3654 10.1245C11.4734 9.93369 10.647 9.72991 9.991 9.49534C9.29244 9.24555 8.79076 8.94651 8.5797 8.67871C8.47411 8.54481 8.43033 8.42107 8.42956 8.29639C8.42877 8.16879 8.47619 7.98301 8.61778 7.75661C8.9009 7.30382 9.56486 6.68291 10.7051 5.93805C11.7348 5.26537 12.3744 4.67266 12.6979 4.0748C13.058 3.40934 12.9524 2.82091 12.5983 2.36464C11.9511 1.53078 10.3638 1.01156 8.51595 0.667652C4.92631 -0.00041455 0.377692 0.000430158 0.377692 0.000430158C0.366353 -0.00014244 0.35337 -0.000143858 0.341465 0.000428741ZM20.6534 3.37316C20.9476 3.37316 21.2418 3.48399 21.47 3.71226L22.9092 5.15217C23.3628 5.6058 23.3657 6.32888 22.9092 6.78544L22.094 7.60134L19.0209 4.52816L19.8368 3.71226C20.0651 3.48399 20.3593 3.37316 20.6534 3.37316ZM18.4907 5.05843L21.5638 8.1316L20.2931 9.40159L17.2207 6.32915L18.4907 5.05843ZM16.6897 6.85941L19.7628 9.93259L8.27319 21.4233L8.05054 20.3079C8.01553 20.1322 7.86126 20.0061 7.68216 20.0061H6.61653V18.9405C6.61653 18.7614 6.49039 18.6071 6.3148 18.5721L5.2023 18.3501L16.6897 6.85941ZM18.5207 12.2338C19.4338 12.525 20.1002 12.8464 20.4681 13.1962C20.6648 13.3832 20.7649 13.5629 20.7999 13.7528C20.8349 13.9427 20.8084 14.1646 20.6614 14.4581C20.2918 15.1975 19.4814 15.6294 18.2812 15.8592C17.2871 16.0496 16.0472 16.0851 14.7049 16.0504L18.5207 12.2338ZM4.56293 18.9881L5.86657 19.2473V20.3826C5.86657 20.5885 6.03414 20.7561 6.24009 20.7561H7.37456L7.63528 22.0612L7.49397 22.2026L6.04532 22.5373L4.08693 20.5796L4.42017 19.1294L4.56293 18.9881ZM3.88768 21.4409L5.18033 22.7358L3.49952 23.1225L3.88768 21.4409Z" fill="#666262"/>
</g>
</g>
<defs>
<clipPath id="clip0_58_2065">
<rect width="24" height="24" fill="white"/>
</clipPath>
</defs>
</svg>
