<svg width="17" height="17" viewBox="0 0 17 17" fill="none" xmlns="http://www.w3.org/2000/svg">
<g id="fi_1077063" clip-path="url(#clip0_58_2209)">
<path id="Vector" d="M8.38834 8.16424C9.42428 8.16424 10.3212 7.7927 11.0543 7.05963C11.7871 6.32669 12.1588 5.42989 12.1588 4.39383C12.1588 3.35813 11.7872 2.46121 11.0541 1.72803C10.3211 0.995205 9.42416 0.623657 8.38834 0.623657C7.35228 0.623657 6.45548 0.995205 5.72253 1.72815C4.98959 2.46109 4.61792 3.35801 4.61792 4.39383C4.61792 5.42989 4.98959 6.32681 5.72253 7.05975C6.45572 7.79258 7.35264 8.16424 8.38834 8.16424ZM6.37128 2.37677C6.93368 1.81438 7.59341 1.541 8.38834 1.541C9.18315 1.541 9.843 1.81438 10.4055 2.37677C10.9679 2.93929 11.2414 3.59914 11.2414 4.39383C11.2414 5.18876 10.9679 5.84849 10.4055 6.41101C9.843 6.97353 9.18315 7.2469 8.38834 7.2469C7.59365 7.2469 6.93392 6.97341 6.37128 6.41101C5.80876 5.84861 5.53527 5.18876 5.53527 4.39383C5.53527 3.59914 5.80876 2.93929 6.37128 2.37677Z" fill="white"/>
<path id="Vector_2" d="M14.9856 12.6608C14.9644 12.3558 14.9217 12.0231 14.8587 11.6717C14.7952 11.3177 14.7134 10.9831 14.6155 10.6772C14.5142 10.3611 14.3767 10.0489 14.2065 9.74972C14.0301 9.4392 13.8228 9.16881 13.5902 8.94631C13.3469 8.71354 13.049 8.52639 12.7046 8.38988C12.3613 8.25409 11.981 8.1853 11.5741 8.1853C11.4143 8.1853 11.2597 8.25087 10.9613 8.44518C10.7776 8.56497 10.5627 8.70351 10.3229 8.85674C10.1178 8.98739 9.84004 9.10981 9.49692 9.22064C9.16215 9.32896 8.82225 9.3839 8.48665 9.3839C8.15129 9.3839 7.81139 9.32896 7.47639 9.22064C7.13363 9.10993 6.85571 8.98751 6.65101 8.85686C6.41346 8.70506 6.19849 8.56652 6.01205 8.44506C5.71384 8.25075 5.55929 8.18518 5.3995 8.18518C4.99248 8.18518 4.61221 8.25409 4.26909 8.39C3.92489 8.52627 3.62691 8.71342 3.38339 8.94643C3.15074 9.16905 2.94341 9.43932 2.76713 9.74972C2.59718 10.0489 2.45959 10.361 2.35832 10.6773C2.2605 10.9832 2.17869 11.3177 2.11516 11.6717C2.0521 12.0226 2.00946 12.3554 1.98832 12.6612C1.96754 12.9601 1.95703 13.2712 1.95703 13.5856C1.95703 14.4027 2.21679 15.0642 2.72903 15.5521C3.23494 16.0335 3.90423 16.2777 4.71838 16.2777H12.2559C13.0698 16.2777 13.7391 16.0335 14.2451 15.5521C14.7575 15.0646 15.0172 14.4028 15.0172 13.5855C15.0171 13.27 15.0065 12.9589 14.9856 12.6608ZM13.6126 14.8875C13.2783 15.2056 12.8345 15.3603 12.2558 15.3603H4.71838C4.1395 15.3603 3.6957 15.2056 3.36153 14.8876C3.0337 14.5755 2.87438 14.1495 2.87438 13.5856C2.87438 13.2923 2.88405 13.0026 2.9034 12.7246C2.92227 12.4518 2.96084 12.1522 3.01805 11.8338C3.07454 11.5193 3.14644 11.2242 3.23195 10.957C3.314 10.7009 3.42591 10.4472 3.56468 10.2028C3.69713 9.96995 3.84953 9.77014 4.01768 9.60915C4.17497 9.45855 4.37323 9.33529 4.60684 9.24286C4.82289 9.15734 5.06569 9.11053 5.32927 9.10348C5.3614 9.12056 5.4186 9.15316 5.51128 9.21359C5.69986 9.33649 5.91723 9.4767 6.15752 9.63017C6.42839 9.80286 6.77737 9.95884 7.1943 10.0934C7.62054 10.2313 8.05527 10.3012 8.48677 10.3012C8.91828 10.3012 9.35312 10.2313 9.77913 10.0936C10.1964 9.95872 10.5453 9.80286 10.8165 9.62993C11.0624 9.47276 11.2737 9.33661 11.4623 9.21359C11.5549 9.15328 11.6122 9.12056 11.6443 9.10348C11.908 9.11053 12.1508 9.15734 12.367 9.24286C12.6004 9.33529 12.7987 9.45867 12.956 9.60915C13.1241 9.77002 13.2765 9.96983 13.409 10.203C13.5479 10.4472 13.6599 10.701 13.7418 10.9569C13.8275 11.2244 13.8995 11.5194 13.9559 11.8337C14.0129 12.1527 14.0516 12.4524 14.0705 12.7247V12.725C14.09 13.0019 14.0998 13.2914 14.0999 13.5856C14.0998 14.1496 13.9404 14.5755 13.6126 14.8875Z" fill="white"/>
</g>
<defs>
<clipPath id="clip0_58_2209">
<rect width="15.654" height="15.654" fill="white" transform="translate(0.672852 0.623657)"/>
</clipPath>
</defs>
</svg>
