<svg width="29" height="29" viewBox="0 0 29 29" fill="none" xmlns="http://www.w3.org/2000/svg">
<g id="fi_1713942" clip-path="url(#clip0_58_1581)">
<path id="Vector" d="M0.483437 7.25C0.750267 7.25 0.966652 7.03362 0.966652 6.76656V1.9333C0.966652 1.39942 1.39942 0.966652 1.9333 0.966652H6.76656C7.03362 0.966652 7.25 0.750267 7.25 0.483437C7.25 0.216385 7.03362 0 6.76656 0H1.9333C0.86554 0 0 0.86554 0 1.9333V6.76656C0 7.03362 0.216385 7.25 0.483437 7.25Z" fill="#0965DA"/>
<path id="Vector_2" d="M27.0667 0H22.2334C21.9664 0 21.75 0.216385 21.75 0.483437C21.75 0.750267 21.9664 0.966652 22.2334 0.966652H27.0667C27.6006 0.966652 28.0333 1.39942 28.0333 1.9333V6.76656C28.0333 7.03362 28.2497 7.25 28.5166 7.25C28.7836 7.25 29 7.03362 29 6.76656V1.9333C29 0.86554 28.1345 0 27.0667 0Z" fill="#0965DA"/>
<path id="Vector_3" d="M6.76656 28.0333H1.9333C1.39942 28.0333 0.966652 27.6006 0.966652 27.0667V22.2334C0.966652 21.9664 0.750267 21.75 0.483437 21.75C0.216385 21.75 0 21.9664 0 22.2334V27.0667C0 28.1345 0.86554 29 1.9333 29H6.76656C7.03362 29 7.25 28.7836 7.25 28.5166C7.25 28.2497 7.03362 28.0333 6.76656 28.0333Z" fill="#0965DA"/>
<path id="Vector_4" d="M28.5166 21.75C28.2497 21.75 28.0333 21.9664 28.0333 22.2334V27.0667C28.0333 27.6006 27.6006 28.0333 27.0667 28.0333H22.2334C21.9664 28.0333 21.75 28.2497 21.75 28.5166C21.75 28.7836 21.9664 29 22.2334 29H27.0667C28.1345 29 29 28.1345 29 27.0667V22.2334C29 21.9664 28.7836 21.75 28.5166 21.75Z" fill="#0965DA"/>
<path id="Vector_5" d="M28.5166 12.0835H22.0332C22.3739 11.4205 22.2861 10.6178 21.81 10.044C21.5865 9.81217 21.2896 9.66504 20.9699 9.62743C21.3371 8.4716 21.7839 6.30576 20.7519 4.5384C19.7432 2.80997 17.6316 1.93359 14.4759 1.93359C11.3202 1.93359 9.20742 2.80997 8.19984 4.5384C7.16637 6.3082 7.61485 8.47691 7.98279 9.63119C7.6779 9.67898 7.39735 9.82611 7.18473 10.0498C6.71236 10.6233 6.62629 11.4227 6.96569 12.0835H0.483437C0.216385 12.0835 0 12.2999 0 12.567C0 12.8338 0.216385 13.0502 0.483437 13.0502H7.38629C7.46439 13.2661 7.50643 13.4936 7.51108 13.723C7.48917 14.1273 7.63255 14.5229 7.90778 14.8193C8.1328 15.043 8.42175 15.1908 8.73483 15.2421C8.77421 15.9597 8.94855 16.6633 9.24857 17.3162C9.42801 17.6237 9.66121 17.8965 9.93733 18.1215L9.70966 19.93L5.08903 21.3516C4.07259 21.6602 3.37941 22.5992 3.38339 23.6615V25.1337C3.38339 25.6676 3.81616 26.1003 4.35004 26.1003H24.65C25.1838 26.1003 25.6166 25.6676 25.6166 25.1337V23.6615C25.6206 22.5992 24.9274 21.6602 23.911 21.3516L19.2903 19.93L19.0627 18.122C19.3386 17.8967 19.572 17.6237 19.7514 17.3162C20.0541 16.6637 20.23 15.9599 20.27 15.2417C21.0104 15.1328 21.5429 14.4735 21.4938 13.727C21.4951 13.4962 21.5356 13.2675 21.6137 13.0502H28.5166C28.7836 13.0502 29 12.8338 29 12.567C29 12.2999 28.7836 12.0835 28.5166 12.0835ZM9.07467 4.95878C9.91653 3.59299 11.7335 2.90025 14.4759 2.90025C17.2183 2.90025 19.0357 3.59299 19.8771 4.95878C20.4028 5.93627 20.5645 7.06864 20.3333 8.15411C20.0105 7.13192 19.472 5.99889 18.5934 5.46058C18.1686 5.1964 17.6121 5.30371 17.3163 5.70705C17.0254 6.10287 16.2725 6.76685 14.5 6.76685C12.7275 6.76685 11.9746 6.10287 11.6841 5.70705C11.3885 5.30305 10.8312 5.19574 10.4066 5.46102C9.49837 6.01725 8.95674 7.20781 8.6357 8.25522C8.38038 7.13944 8.53614 5.9688 9.07467 4.95878ZM7.95757 11.9346C7.63277 11.322 7.70777 10.9034 7.88566 10.7153C8.04474 10.5644 8.28214 10.5315 8.47618 10.6337C8.48813 10.6388 8.50052 10.643 8.51291 10.6467C8.5357 10.6571 8.55937 10.6655 8.58349 10.6722C8.61292 10.6806 8.64301 10.6861 8.67332 10.6888C8.68593 10.6888 8.6981 10.6954 8.71071 10.6954C8.7231 10.6954 8.73084 10.6897 8.74146 10.6892C8.77421 10.6866 8.80673 10.6806 8.83815 10.6713L8.84943 10.668L8.86249 10.6636C8.88019 10.6585 8.89789 10.6527 8.91515 10.6456C8.94324 10.6308 8.9698 10.6133 8.99435 10.593C9.0021 10.5872 9.0094 10.5819 9.01648 10.5757C9.03462 10.5635 9.05166 10.5505 9.06781 10.5359C9.08728 10.5115 9.10432 10.4854 9.11848 10.4578C9.12246 10.4514 9.12688 10.4461 9.1302 10.4399C9.1406 10.4222 9.14967 10.4038 9.1572 10.3848C9.16295 10.3682 9.16737 10.3511 9.17069 10.3339C9.17932 10.3076 9.1853 10.2803 9.18906 10.2527C9.29592 9.36635 9.80834 6.95934 10.9031 6.27877C11.3042 6.82217 12.3014 7.73373 14.5 7.73373C16.6986 7.73373 17.6958 6.82217 18.0883 6.28364C19.124 6.91775 19.6393 9.08447 19.7857 10.0779C19.722 10.2896 19.8125 10.5173 20.0041 10.6279C20.0419 10.6461 20.082 10.6591 20.1231 10.6664C20.159 10.6762 20.1961 10.6817 20.2333 10.683C20.2663 10.6879 20.2997 10.6894 20.3329 10.6872H20.3464C20.3574 10.6872 20.3667 10.679 20.3778 10.677C20.4167 10.6724 20.4548 10.6629 20.4913 10.6485C20.6891 10.5299 20.9413 10.5558 21.111 10.712C21.2905 10.8994 21.3661 11.3189 21.0367 11.9435C21.0119 11.9917 20.9911 12.0362 20.9685 12.0827H8.03058C8.00602 12.0353 7.98412 11.9869 7.95757 11.9346ZM24.65 23.6615V25.1337H4.35004V23.6615C4.34761 23.0243 4.76357 22.461 5.37312 22.2758L9.85458 20.8971C10.2331 21.7054 11.3584 23.2004 14.5 23.2004C17.6416 23.2004 18.7669 21.7054 19.1454 20.8971L23.6269 22.2758C24.2364 22.461 24.6524 23.0243 24.65 23.6615ZM18.3584 20.2675C18.2478 20.6246 17.5765 22.2337 14.5 22.2337C11.4153 22.2337 10.7484 20.6155 10.6416 20.2683L10.8296 18.7749C11.1418 18.972 11.4458 19.1422 11.6885 19.2678C11.743 19.2939 11.791 19.3318 11.829 19.3785C12.4784 20.2062 13.4502 20.7175 14.5 20.7836C15.5536 20.7164 16.5282 20.202 17.178 19.3698C17.2168 19.3251 17.2645 19.2891 17.3183 19.2645C17.5599 19.1404 17.8602 18.9711 18.1704 18.7753L18.3584 20.2675ZM20.5271 13.7425C20.5367 13.8887 20.4902 14.033 20.3977 14.1465C20.228 14.2728 20.0178 14.3328 19.807 14.3151C19.5401 14.3151 19.3237 14.5315 19.3237 14.7985C19.3229 15.5101 19.1782 16.2143 18.8983 16.8686C18.6795 17.2848 17.9035 17.8748 16.8813 18.4056C16.7079 18.4901 16.5546 18.6109 16.432 18.7598C15.9645 19.3672 15.2635 19.7508 14.5 19.817C13.7402 19.7506 13.0428 19.3694 12.5769 18.7658C12.4545 18.6151 12.3012 18.4926 12.1273 18.4065C11.0982 17.8724 10.3225 17.2823 10.1046 16.8677C9.83002 16.2123 9.68621 15.5099 9.68112 14.7994C9.68112 14.5326 9.46474 14.3162 9.19791 14.3162C8.98484 14.3343 8.77266 14.2735 8.60141 14.1456C8.50981 14.0321 8.46556 13.8876 8.47773 13.7425C8.47861 13.5093 8.45162 13.277 8.39742 13.0502H20.6035C20.549 13.2774 20.5234 13.5104 20.5271 13.7438V13.7425Z" fill="#0965DA"/>
</g>
<defs>
<clipPath id="clip0_58_1581">
<rect width="29" height="29" fill="white"/>
</clipPath>
</defs>
</svg>
