<svg width="26" height="26" viewBox="0 0 26 26" fill="none" xmlns="http://www.w3.org/2000/svg">
<g id="fi_8392510" clip-path="url(#clip0_58_1597)">
<g id="Group">
<path id="Vector" d="M0.761719 8.0505C1.18239 8.0505 1.52344 7.70946 1.52344 7.28878V1.52344H7.28878C8.29837 1.48596 8.29761 0.0371211 7.28878 0H0.761719C0.341047 0 0 0.341047 0 0.761719V7.28878C0 7.70946 0.341047 8.0505 0.761719 8.0505Z" fill="#0965DA"/>
<path id="Vector_2" d="M7.28878 24.4763H1.52344V18.711C1.48596 17.7014 0.0371211 17.7022 0 18.711V25.2381C0 25.6587 0.341047 25.9998 0.761719 25.9998H7.28878C8.29837 25.9623 8.29761 24.5135 7.28878 24.4763Z" fill="#0965DA"/>
<path id="Vector_3" d="M25.2383 0H18.7112C17.7017 0.0374766 17.7024 1.48632 18.7112 1.52344H24.4766V7.28878C24.5141 8.29837 25.9629 8.29761 26 7.28878V0.761719C26 0.341047 25.659 0 25.2383 0Z" fill="#0965DA"/>
<path id="Vector_4" d="M25.2383 17.9492C24.8176 17.9492 24.4766 18.2903 24.4766 18.7109V24.4763H18.7112C17.7017 24.5138 17.7024 25.9626 18.7112 25.9997H25.2383C25.659 25.9997 26 25.6587 26 25.238V18.7109C26 18.2903 25.659 17.9492 25.2383 17.9492Z" fill="#0965DA"/>
<path id="Vector_5" d="M25.2383 10.6062C20.1881 10.6062 17.3781 14.6856 16.2636 14.6856C15.815 14.6856 16.0562 13.5886 16.1704 13.2406C16.3346 12.7477 15.9673 12.238 15.4478 12.238C14.7586 12.238 14.2275 12.8601 13.4926 13.7211C10.1925 17.6198 10.7693 14.3249 12.0496 11.7085C12.1677 11.4725 12.1551 11.192 12.0163 10.9674C11.8775 10.7428 11.6323 10.6062 11.3683 10.6062C10.6235 10.6062 10.1428 11.3778 8.42254 14.328C7.56489 15.7818 5.90384 18.736 4.89243 19.5212C4.11492 17.8 7.14625 8.30869 8.64333 7.01123C8.94081 6.71375 8.94081 6.23148 8.64333 5.93401C8.34591 5.63658 7.86359 5.63658 7.56611 5.93401C6.42511 7.07501 5.14938 10.326 4.40366 12.7633C2.81344 17.9601 2.83513 21.1044 4.84119 21.1044C6.06314 21.1044 7.28834 19.2832 9.54719 15.423C9.69578 16.5008 10.4435 17.025 11.3683 17.025C12.6234 17.025 13.6833 15.8418 14.545 14.8346C14.6254 15.1983 14.958 16.2091 16.2636 16.2091C18.3878 16.2091 20.5149 12.1296 25.2383 12.1296C26.2452 12.0937 26.2495 10.644 25.2383 10.6062Z" fill="#0965DA"/>
</g>
</g>
<defs>
<clipPath id="clip0_58_1597">
<rect width="26" height="26" fill="white"/>
</clipPath>
</defs>
</svg>
