<svg width="11" height="11" viewBox="0 0 11 11" fill="none" xmlns="http://www.w3.org/2000/svg">
<g id="Vector">
<path d="M10.0746 2.65605C10.0712 2.40999 9.8864 2.20499 9.64234 2.17345C7.38992 1.88232 5.82607 0.613105 5.26589 0.089896C5.13756 -0.0299653 4.9381 -0.0299653 4.80977 0.089896C4.24959 0.613105 2.68576 1.88232 0.433322 2.17345C0.189281 2.20499 0.00449343 2.41002 0.00107742 2.65605C-0.0211589 4.26736 0.25687 9.80477 5.03785 11C9.81886 9.80477 10.0969 4.26736 10.0746 2.65605Z" fill="url(#paint0_linear_43_1587)"/>
<path d="M5.71835 10.7902C5.75184 10.7778 5.7851 10.7652 5.8181 10.7523C5.86073 10.7357 5.90292 10.7187 5.94471 10.7014C5.97219 10.6899 5.99949 10.6783 6.02661 10.6666C6.06932 10.6481 6.11164 10.6292 6.15347 10.61C6.1692 10.6027 6.18482 10.5954 6.20042 10.588C6.23898 10.5698 6.27714 10.5513 6.31493 10.5324C6.36978 10.5051 6.42385 10.4771 6.47711 10.4484C6.52801 10.421 6.57835 10.3931 6.62783 10.3644C6.68465 10.3316 6.74051 10.2979 6.79551 10.2635C6.79676 10.2627 6.79805 10.262 6.79934 10.2612C6.90392 10.1957 7.00505 10.1275 7.1031 10.0568C7.11047 10.0515 7.11797 10.0463 7.1253 10.0409C7.19686 9.98886 7.26656 9.93535 7.3347 9.88069C7.34149 9.87525 7.34841 9.86988 7.35516 9.86443C7.39374 9.83319 7.43164 9.80144 7.46915 9.7694C7.50413 9.73954 7.53883 9.70946 7.57288 9.67893C7.5844 9.66862 7.59567 9.65813 7.60708 9.64776C7.61901 9.63691 7.63102 9.62612 7.64283 9.61517C7.67794 9.58264 7.71242 9.54966 7.74652 9.51644C7.75728 9.50596 7.76815 9.49556 7.77881 9.48501C7.81578 9.44845 7.85203 9.41143 7.88786 9.37409C7.8951 9.36655 7.90249 9.35903 7.90969 9.35147C7.95186 9.30704 7.9932 9.26209 8.03378 9.21663C8.03436 9.21597 8.03497 9.21532 8.03557 9.21467C8.08694 9.15707 8.13689 9.0986 8.18574 9.03945C8.21511 9.00391 8.2442 8.96816 8.27269 8.93209C8.32894 8.86087 8.38342 8.78864 8.43627 8.71557C8.43687 8.71476 8.43748 8.71394 8.43808 8.7131C8.45047 8.69594 8.46263 8.67868 8.47488 8.66143C8.48021 8.65391 8.48564 8.64641 8.49093 8.63887C8.4995 8.62667 8.50786 8.61438 8.51635 8.60211C8.52511 8.58944 8.53396 8.57678 8.54266 8.56406C8.57098 8.52247 8.59865 8.4806 8.62596 8.43853C8.66437 8.37932 8.70193 8.3197 8.73834 8.25961C8.7832 8.18566 8.82652 8.11104 8.86847 8.03591C8.87024 8.03271 8.87208 8.02958 8.87385 8.02637C8.88317 8.00964 8.89228 7.99282 8.90145 7.97604C8.90659 7.96663 8.91183 7.95728 8.91692 7.94785C8.94305 7.89955 8.9685 7.85102 8.99347 7.80236C8.99562 7.79815 8.99785 7.79393 9 7.78975C9.01008 7.77 9.01998 7.75021 9.02984 7.73041C9.03322 7.72366 9.03665 7.71696 9.04003 7.71019C9.04546 7.69925 9.05073 7.68827 9.0561 7.67732C9.08987 7.60848 9.12266 7.53935 9.15426 7.46991C9.2101 7.34727 9.26254 7.22385 9.31193 7.10008C9.32736 7.06143 9.34259 7.02275 9.35739 6.98406C9.39647 6.88199 9.4334 6.77974 9.46842 6.67752C9.47059 6.67114 9.47287 6.66478 9.47504 6.6584C9.48168 6.63887 9.48817 6.61936 9.49468 6.59981C9.49721 6.59221 9.49984 6.58458 9.50233 6.57697C9.52706 6.50208 9.55069 6.42725 9.5734 6.35255C9.57538 6.34604 9.57744 6.33951 9.57939 6.33295C9.59134 6.29334 9.60292 6.25378 9.6143 6.21425C9.62702 6.17017 9.63946 6.12612 9.65152 6.08217C9.66954 6.01634 9.68679 5.9507 9.70336 5.88531C9.71324 5.84638 9.72295 5.80749 9.7323 5.76875C9.73644 5.75163 9.74044 5.73457 9.7445 5.71747C9.74673 5.70802 9.74903 5.69856 9.75125 5.68911C9.76216 5.64247 9.77267 5.596 9.78289 5.54968C9.78429 5.54334 9.78575 5.537 9.78712 5.53066C9.79559 5.49199 9.80373 5.45349 9.8117 5.41508C9.81619 5.39349 9.82064 5.37194 9.82496 5.35043C9.8337 5.3072 9.84219 5.26413 9.85035 5.22131C9.85055 5.2203 9.85076 5.21927 9.85093 5.21824C9.85854 5.17817 9.86586 5.13829 9.873 5.09859C9.87961 5.06172 9.8861 5.02499 9.89233 4.98846C9.89957 4.94594 9.90649 4.90375 9.91317 4.86173C9.91444 4.85376 9.91575 4.84572 9.91702 4.83777C9.91814 4.8307 9.91917 4.8237 9.92029 4.81663C9.92304 4.79884 9.92583 4.78103 9.92851 4.76333C9.93505 4.72012 9.94125 4.67726 9.94725 4.6347C9.94811 4.62851 9.94903 4.62228 9.94989 4.61612C9.95208 4.60024 9.95423 4.58447 9.95636 4.56868C9.9575 4.56028 9.95866 4.55186 9.95979 4.5435C9.96074 4.53637 9.96162 4.5293 9.96259 4.52221C9.97116 4.45718 9.97915 4.39292 9.98652 4.32958C10.0027 4.19116 10.016 4.05699 10.0271 3.92786C10.0273 3.92593 10.0274 3.92393 10.0276 3.922C10.0304 3.88969 10.0329 3.85778 10.0354 3.82614C10.0366 3.81024 10.0378 3.79438 10.039 3.77866C10.0445 3.70544 10.0492 3.63409 10.0532 3.56469C10.0547 3.53835 10.0562 3.51219 10.0576 3.48647C10.0604 3.43274 10.0628 3.38042 10.0649 3.32935C10.0655 3.31434 10.066 3.29947 10.0666 3.28469C10.0696 3.20457 10.0717 3.12796 10.0731 3.0553C10.0731 3.05399 10.0732 3.05263 10.0732 3.0513C10.0747 2.97001 10.0754 2.89369 10.0755 2.82269C10.0755 2.82127 10.0755 2.81977 10.0755 2.81835C10.0755 2.76058 10.0753 2.70641 10.0746 2.65605C10.0712 2.40999 9.8864 2.20499 9.64234 2.17345C9.57952 2.16533 9.51715 2.15609 9.45543 2.14649C9.44174 2.14436 9.42804 2.14223 9.41441 2.14004C9.35424 2.13033 9.29449 2.12006 9.23536 2.10902C9.22649 2.10736 9.21777 2.10556 9.20894 2.10388C9.1552 2.09364 9.10194 2.08285 9.04907 2.07155C9.03771 2.06914 9.0263 2.06678 9.01498 2.06431C8.95738 2.05174 8.90031 2.03853 8.84379 2.0248C8.83191 2.0219 8.82013 2.01891 8.8083 2.01597C8.75602 2.00299 8.7042 1.98961 8.6529 1.97569C8.64624 1.97388 8.63951 1.97216 8.63285 1.97036C8.57715 1.95508 8.52212 1.93916 8.46751 1.92286C8.45511 1.91914 8.44276 1.91542 8.43041 1.91166C8.37575 1.89503 8.32148 1.87808 8.26796 1.86051C8.26504 1.85956 8.26221 1.85855 8.25928 1.85759C8.20779 1.84059 8.15693 1.8231 8.10651 1.80527C8.09508 1.80123 8.08361 1.79724 8.07222 1.79313C8.02089 1.77474 7.97004 1.75599 7.91985 1.73685C7.9113 1.73358 7.9029 1.73025 7.89437 1.72696C7.84896 1.70943 7.80401 1.69162 7.75954 1.67351C7.75075 1.66992 7.7419 1.66642 7.73315 1.66283C7.68438 1.64277 7.63626 1.6224 7.58869 1.60173C7.57832 1.59722 7.56805 1.59268 7.55773 1.58817C7.51283 1.56843 7.46834 1.54853 7.42451 1.52832C7.42051 1.52649 7.41647 1.52469 7.4125 1.52284C7.36584 1.50123 7.31992 1.47931 7.27448 1.45723C7.26419 1.45222 7.25394 1.44721 7.2437 1.44221C7.19877 1.42017 7.1543 1.39795 7.11062 1.37552C7.10628 1.37331 7.10207 1.37103 7.09775 1.36882C7.05698 1.34778 7.0168 1.32658 6.97712 1.30529C6.96816 1.30048 6.9592 1.29571 6.95028 1.29089C6.90852 1.26829 6.86738 1.2456 6.82688 1.22281C6.81923 1.21849 6.81169 1.21415 6.80408 1.20985C6.76752 1.18912 6.73147 1.16833 6.69595 1.14749C6.68961 1.14375 6.68317 1.14005 6.67685 1.13631C6.63782 1.11326 6.59951 1.09019 6.56174 1.06707C6.55327 1.06189 6.54492 1.05671 6.53652 1.05154C6.4995 1.02872 6.46293 1.00588 6.42716 0.983087C6.42596 0.982314 6.42471 0.981541 6.42347 0.980767C6.38664 0.957263 6.35072 0.933802 6.31525 0.910406C6.3073 0.905142 6.29935 0.8999 6.29147 0.894658C6.25696 0.871734 6.22297 0.848853 6.1898 0.826123C6.18535 0.823072 6.18106 0.820064 6.17665 0.817013C6.14632 0.79613 6.11663 0.775376 6.08745 0.754752C6.08101 0.750175 6.0745 0.745599 6.06807 0.741066C6.03673 0.718765 6.00607 0.696636 5.97608 0.674701C5.96991 0.670167 5.96387 0.665699 5.95777 0.66123C5.93053 0.641164 5.9038 0.621291 5.87768 0.601589C5.87377 0.598624 5.86975 0.59566 5.86586 0.592695C5.83735 0.571103 5.80966 0.549791 5.78254 0.528714C5.77634 0.52388 5.77023 0.519111 5.76409 0.514298C5.73706 0.493158 5.71049 0.47221 5.6849 0.451693C5.68436 0.451263 5.68387 0.450855 5.68333 0.450425C5.65791 0.430037 5.63349 0.410099 5.60953 0.390398C5.60416 0.385972 5.59879 0.381568 5.59348 0.377207C5.57004 0.357806 5.5472 0.33875 5.52518 0.320144C5.52166 0.317158 5.51835 0.314322 5.51487 0.311357C5.495 0.294492 5.47577 0.27797 5.4571 0.261792C5.45323 0.258441 5.4493 0.255046 5.44548 0.251716C5.42524 0.234121 5.40579 0.216998 5.38702 0.200283C5.383 0.196695 5.37915 0.193257 5.3752 0.189712C5.35806 0.174373 5.34143 0.159398 5.32553 0.144939C5.32364 0.14322 5.32162 0.141394 5.31975 0.139697C5.3026 0.124035 5.28643 0.109082 5.27081 0.0945366C5.26922 0.0930327 5.26748 0.0913784 5.26589 0.089896C5.20189 0.0299761 5.11979 5.37327e-06 5.03785 5.37327e-06V11C5.1439 10.9735 5.24763 10.9447 5.34929 10.914C5.47566 10.8759 5.5986 10.8345 5.71835 10.7902Z" fill="url(#paint1_linear_43_1587)"/>
<path d="M9.47732 2.99329C9.47431 2.77643 9.31146 2.59573 9.09636 2.56793C7.11103 2.31132 5.73264 1.19262 5.2389 0.731462C5.12579 0.625824 4.94998 0.625824 4.83689 0.731462C4.34313 1.19262 2.96476 2.31132 0.979433 2.56793C0.764331 2.59573 0.601458 2.77643 0.598472 2.99329C0.578771 4.41352 0.823822 9.29428 5.03785 10.3478C9.25191 9.29428 9.49696 4.41352 9.47732 2.99329Z" fill="url(#paint2_linear_43_1587)"/>
<path d="M5.03785 9.9743L4.98816 9.96188C4.09428 9.7384 3.32972 9.30738 2.71571 8.68077C2.20602 8.16059 1.79646 7.50209 1.49839 6.72358C0.9804 5.37067 0.91932 3.99339 0.929009 3.29281C0.933005 3.00268 1.1538 2.75576 1.44255 2.71844C3.12579 2.50087 4.29619 1.55395 4.72126 1.15692C4.89876 0.991101 5.1769 0.991123 5.35442 1.1569C5.77949 1.55395 6.9499 2.50087 8.63311 2.71844C8.9219 2.75578 9.1427 3.00273 9.14668 3.29281C9.16496 4.61468 8.92633 9.00217 5.08752 9.9619L5.03785 9.9743ZM5.03785 1.44174C5.02455 1.44174 5.01126 1.44657 5.00088 1.45626C4.54683 1.88034 3.29633 2.89187 1.49508 3.12467C1.40712 3.13604 1.33985 3.21078 1.33863 3.29846C1.32149 4.53834 1.53884 8.63898 5.03785 9.55174C8.53686 8.63898 8.75424 4.53834 8.7371 3.29846C8.73587 3.21076 8.66863 3.13604 8.58063 3.12467C6.7794 2.89187 5.52888 1.88034 5.07485 1.45626C5.06445 1.44657 5.05117 1.44174 5.03785 1.44174Z" fill="white"/>
<path d="M9.47732 2.99329C9.47431 2.77643 9.31146 2.59573 9.09636 2.56793C7.11103 2.31132 5.73264 1.19262 5.2389 0.731462C5.18236 0.678632 5.11013 0.652228 5.03787 0.652228L5.03785 10.3478C9.25191 9.29428 9.49696 4.41352 9.47732 2.99329Z" fill="url(#paint3_linear_43_1587)"/>
<path d="M9.71848 5.82483C9.36412 7.25741 8.66938 8.81597 7.32373 9.88922L3.15406 5.71958C3.00156 5.56708 3.00156 5.31969 3.15406 5.167C3.30656 5.01429 3.55416 5.01429 3.70664 5.167L4.54545 6.00581C4.64877 6.10892 4.81699 6.10892 4.91988 6.00581L7.13348 3.79243C7.28619 3.63972 7.53359 3.63972 7.68606 3.79243L9.71848 5.82483Z" fill="url(#paint4_linear_43_1587)"/>
<path d="M7.68606 3.79243C7.83869 3.94505 7.83886 4.19253 7.68623 4.34513L5.47265 6.55845C5.06464 6.96649 4.40069 6.96649 3.99296 6.55845L3.15406 5.71958C3.00156 5.56708 3.00156 5.31969 3.15406 5.167C3.30656 5.01429 3.55416 5.01429 3.70664 5.167L4.54545 6.00581C4.64877 6.10892 4.81699 6.10892 4.91988 6.00581L7.13348 3.79243C7.28619 3.63972 7.53359 3.63972 7.68606 3.79243Z" fill="url(#paint5_linear_43_1587)"/>
</g>
<defs>
<linearGradient id="paint0_linear_43_1587" x1="3.24865" y1="3.03533" x2="11.8518" y2="11.6384" gradientUnits="userSpaceOnUse">
<stop stop-color="#62E1FB"/>
<stop offset="1" stop-color="#00A2F3"/>
</linearGradient>
<linearGradient id="paint1_linear_43_1587" x1="8.30044" y1="5.50012" x2="-3.27699" y2="5.50012" gradientUnits="userSpaceOnUse">
<stop stop-color="#00A2F3" stop-opacity="0"/>
<stop offset="1" stop-color="#0075CD"/>
</linearGradient>
<linearGradient id="paint2_linear_43_1587" x1="3.08964" y1="2.87642" x2="8.42557" y2="8.21238" gradientUnits="userSpaceOnUse">
<stop stop-color="#A7F3CE"/>
<stop offset="1" stop-color="#61DB99"/>
</linearGradient>
<linearGradient id="paint3_linear_43_1587" x1="8.46978" y1="5.50013" x2="-4.65597" y2="5.50013" gradientUnits="userSpaceOnUse">
<stop stop-color="#61DB99" stop-opacity="0"/>
<stop offset="1" stop-color="#009E74"/>
</linearGradient>
<linearGradient id="paint4_linear_43_1587" x1="7.85364" y1="6.91343" x2="4.00113" y2="3.63164" gradientUnits="userSpaceOnUse">
<stop stop-color="#61DB99" stop-opacity="0"/>
<stop offset="1" stop-color="#009E74"/>
</linearGradient>
<linearGradient id="paint5_linear_43_1587" x1="5.41996" y1="4.69044" x2="5.41996" y2="7.24432" gradientUnits="userSpaceOnUse">
<stop stop-color="#FFF465"/>
<stop offset="1" stop-color="#FFE600"/>
</linearGradient>
</defs>
</svg>
